<svg xmlns="http://www.w3.org/2000/svg" width="128" height="128" viewBox="0 0 128 128" role="img" aria-labelledby="title"><title id="title">White Knight</title><g fill="#FAF7EF" stroke="#1B1B19" stroke-width="4.2" stroke-linecap="round" stroke-linejoin="round"><path d="M 116,118 H 41 C 42,104 54,94 63,84 C 70,76 75,65 75,55 C 67,65 55,72 46,80 L 33,93 Q 30,97 25,93 L 20,93 Q 11,93 11,84 C 11,77 16,67 20,60 L 35,34 L 39,29 L 37,18 Q 36,12 42,15 L 50,24 L 57,16 Q 63,10 63,17 L 64,25 C 98,27 116,53 116,118 Z"/><path d="M 75,55 Q 78,51 78,47" fill="none" stroke="#1B1B19"/><path d="M 26,92 L 27,87" fill="none" stroke="#1B1B19"/><ellipse cx="40" cy="44" rx="4.1" ry="7.6" transform="rotate(31 40 44)" fill="#1B1B19" stroke="none"/><circle cx="21" cy="80" r="4" fill="#1B1B19" stroke="none"/></g></svg>
